<svg xmlns="http://www.w3.org/2000/svg" xmlns:xlink="http://www.w3.org/1999/xlink" width="500" zoomAndPan="magnify" viewBox="0 0 375 374.999991" height="500" preserveAspectRatio="xMidYMid meet" version="1.0"><defs><g/></defs><path fill="#000000" d="M 193.441406 142.34375 L 196.464844 142.34375 L 196.464844 132.667969 L 195.300781 132.667969 L 195.300781 130.421875 L 179.40625 130.421875 L 179.40625 132.667969 L 178.238281 132.667969 L 178.238281 142.34375 L 181.261719 142.34375 L 174.78125 155.304688 L 186.054688 186.402344 L 186.054688 189.121094 L 186.964844 189.121094 L 186.964844 163.179688 C 185.175781 162.957031 183.789062 161.429688 183.789062 159.578125 C 183.789062 157.730469 185.175781 156.203125 186.964844 155.980469 L 186.964844 142.34375 L 187.742188 142.34375 L 187.742188 155.980469 C 189.53125 156.203125 190.914062 157.730469 190.914062 159.578125 C 190.914062 161.429688 189.53125 162.953125 187.742188 163.179688 L 187.742188 189.125 L 188.648438 189.125 L 188.648438 186.402344 L 199.921875 155.304688 Z M 193.441406 142.34375 " fill-opacity="1" fill-rule="nonzero"/><g fill="#04d3dd" fill-opacity="1"><g transform="translate(62.357117, 229.499985)"><g><path d="M 2.875 -39.59375 L 14.359375 -39.59375 C 19.859375 -39.59375 24.554688 -37.710938 28.453125 -33.953125 C 32.359375 -30.191406 34.3125 -25.484375 34.3125 -19.828125 C 34.3125 -14.128906 32.367188 -9.398438 28.484375 -5.640625 C 24.597656 -1.878906 19.890625 0 14.359375 0 L 2.875 0 Z M 11.90625 -8.0625 L 13.296875 -8.0625 C 16.585938 -8.0625 19.28125 -9.171875 21.375 -11.390625 C 23.476562 -13.617188 24.546875 -16.414062 24.578125 -19.78125 C 24.578125 -23.132812 23.523438 -25.929688 21.421875 -28.171875 C 19.328125 -30.410156 16.617188 -31.53125 13.296875 -31.53125 L 11.90625 -31.53125 Z M 11.90625 -8.0625 "/></g></g></g><g fill="#04d3dd" fill-opacity="1"><g transform="translate(97.781053, 229.499985)"><g><path d="M 33.3125 -39.59375 L 33.3125 -14.0625 C 33.3125 -9.195312 32 -5.515625 29.375 -3.015625 C 26.75 -0.523438 22.90625 0.71875 17.84375 0.71875 C 12.789062 0.71875 8.953125 -0.523438 6.328125 -3.015625 C 3.710938 -5.515625 2.40625 -9.195312 2.40625 -14.0625 L 2.40625 -39.59375 L 11.421875 -39.59375 L 11.421875 -16.703125 C 11.421875 -13.503906 11.925781 -11.28125 12.9375 -10.03125 C 13.945312 -8.78125 15.585938 -8.15625 17.859375 -8.15625 C 20.128906 -8.15625 21.765625 -8.78125 22.765625 -10.03125 C 23.773438 -11.28125 24.28125 -13.503906 24.28125 -16.703125 L 24.28125 -39.59375 Z M 33.3125 -39.59375 "/></g></g></g><g fill="#04d3dd" fill-opacity="1"><g transform="translate(133.492991, 229.499985)"><g><path d="M 1.109375 -19.828125 C 1.109375 -25.554688 3.054688 -30.398438 6.953125 -34.359375 C 10.859375 -38.328125 15.566406 -40.3125 21.078125 -40.3125 C 26.609375 -40.3125 31.304688 -38.335938 35.171875 -34.390625 C 39.046875 -30.441406 40.984375 -25.585938 40.984375 -19.828125 C 40.984375 -14.035156 39.078125 -9.160156 35.265625 -5.203125 C 31.460938 -1.253906 26.734375 0.71875 21.078125 0.71875 C 15.285156 0.71875 10.507812 -1.238281 6.75 -5.15625 C 2.988281 -9.082031 1.109375 -13.972656 1.109375 -19.828125 Z M 10.84375 -19.828125 C 10.84375 -17.742188 11.160156 -15.84375 11.796875 -14.125 C 12.441406 -12.414062 13.5625 -10.96875 15.15625 -9.78125 C 16.757812 -8.601562 18.734375 -8.015625 21.078125 -8.015625 C 24.429688 -8.015625 26.960938 -9.164062 28.671875 -11.46875 C 30.390625 -13.769531 31.25 -16.554688 31.25 -19.828125 C 31.25 -23.054688 30.375 -25.828125 28.625 -28.140625 C 26.882812 -30.460938 24.367188 -31.625 21.078125 -31.625 C 17.804688 -31.625 15.28125 -30.460938 13.5 -28.140625 C 11.726562 -25.828125 10.84375 -23.054688 10.84375 -19.828125 Z M 10.84375 -19.828125 "/></g></g></g><g fill="#04d3dd" fill-opacity="1"><g transform="translate(175.588913, 229.499985)"><g><path d="M 2.875 -39.59375 L 17.328125 -39.59375 C 21.359375 -39.59375 24.617188 -38.550781 27.109375 -36.46875 C 29.609375 -34.394531 30.859375 -31.375 30.859375 -27.40625 C 30.859375 -23.4375 29.59375 -20.320312 27.0625 -18.0625 C 24.539062 -15.8125 21.296875 -14.6875 17.328125 -14.6875 L 11.90625 -14.6875 L 11.90625 0 L 2.875 0 Z M 11.90625 -21.890625 L 14.453125 -21.890625 C 16.460938 -21.890625 18.113281 -22.296875 19.40625 -23.109375 C 20.707031 -23.929688 21.359375 -25.269531 21.359375 -27.125 C 21.359375 -29.007812 20.707031 -30.359375 19.40625 -31.171875 C 18.113281 -31.992188 16.460938 -32.40625 14.453125 -32.40625 L 11.90625 -32.40625 Z M 11.90625 -21.890625 "/></g></g></g><g fill="#04d3dd" fill-opacity="1"><g transform="translate(207.55686, 229.499985)"><g><path d="M 1.109375 -19.828125 C 1.109375 -25.554688 3.054688 -30.398438 6.953125 -34.359375 C 10.859375 -38.328125 15.566406 -40.3125 21.078125 -40.3125 C 26.609375 -40.3125 31.304688 -38.335938 35.171875 -34.390625 C 39.046875 -30.441406 40.984375 -25.585938 40.984375 -19.828125 C 40.984375 -14.035156 39.078125 -9.160156 35.265625 -5.203125 C 31.460938 -1.253906 26.734375 0.71875 21.078125 0.71875 C 15.285156 0.71875 10.507812 -1.238281 6.75 -5.15625 C 2.988281 -9.082031 1.109375 -13.972656 1.109375 -19.828125 Z M 10.84375 -19.828125 C 10.84375 -17.742188 11.160156 -15.84375 11.796875 -14.125 C 12.441406 -12.414062 13.5625 -10.96875 15.15625 -9.78125 C 16.757812 -8.601562 18.734375 -8.015625 21.078125 -8.015625 C 24.429688 -8.015625 26.960938 -9.164062 28.671875 -11.46875 C 30.390625 -13.769531 31.25 -16.554688 31.25 -19.828125 C 31.25 -23.054688 30.375 -25.828125 28.625 -28.140625 C 26.882812 -30.460938 24.367188 -31.625 21.078125 -31.625 C 17.804688 -31.625 15.28125 -30.460938 13.5 -28.140625 C 11.726562 -25.828125 10.84375 -23.054688 10.84375 -19.828125 Z M 10.84375 -19.828125 "/></g></g></g><g fill="#04d3dd" fill-opacity="1"><g transform="translate(249.652781, 229.499985)"><g><path d="M 2.875 -39.59375 L 17.046875 -39.59375 C 20.847656 -39.59375 23.945312 -38.578125 26.34375 -36.546875 C 28.75 -34.515625 29.953125 -31.613281 29.953125 -27.84375 C 29.953125 -24.925781 29.222656 -22.484375 27.765625 -20.515625 C 26.304688 -18.546875 24.332031 -17.164062 21.84375 -16.375 L 35.46875 0 L 24 0 L 11.90625 -15.640625 L 11.90625 0 L 2.875 0 Z M 11.90625 -22.03125 L 12.953125 -22.03125 C 13.785156 -22.03125 14.488281 -22.046875 15.0625 -22.078125 C 15.644531 -22.109375 16.300781 -22.21875 17.03125 -22.40625 C 17.769531 -22.601562 18.363281 -22.878906 18.8125 -23.234375 C 19.257812 -23.585938 19.644531 -24.097656 19.96875 -24.765625 C 20.289062 -25.441406 20.453125 -26.257812 20.453125 -27.21875 C 20.453125 -28.175781 20.289062 -28.988281 19.96875 -29.65625 C 19.644531 -30.332031 19.257812 -30.847656 18.8125 -31.203125 C 18.363281 -31.554688 17.769531 -31.828125 17.03125 -32.015625 C 16.300781 -32.203125 15.644531 -32.3125 15.0625 -32.34375 C 14.488281 -32.382812 13.785156 -32.40625 12.953125 -32.40625 L 11.90625 -32.40625 Z M 11.90625 -22.03125 "/></g></g></g><g fill="#04d3dd" fill-opacity="1"><g transform="translate(284.020737, 229.499985)"><g><path d="M 0.390625 -31.6875 L 0.390625 -39.59375 L 28.21875 -39.59375 L 28.21875 -31.6875 L 18.8125 -31.6875 L 18.8125 0 L 9.796875 0 L 9.796875 -31.6875 Z M 0.390625 -31.6875 "/></g></g></g></svg>